<?xml version="1.0" encoding="UTF-8" standalone="no"?>
<!-- Created with Inkscape (http://www.inkscape.org/) -->

<svg
   xmlns:dc="http://purl.org/dc/elements/1.1/"
   xmlns:cc="http://creativecommons.org/ns#"
   xmlns:rdf="http://www.w3.org/1999/02/22-rdf-syntax-ns#"
   xmlns:svg="http://www.w3.org/2000/svg"
   xmlns="http://www.w3.org/2000/svg"
   xmlns:sodipodi="http://sodipodi.sourceforge.net/DTD/sodipodi-0.dtd"
   xmlns:inkscape="http://www.inkscape.org/namespaces/inkscape"
   id="svg3058"
   version="1.1"
   inkscape:version="0.48.5 r10040"
   width="725.08429"
   height="51.178738"
   xml:space="preserve"
   sodipodi:docname="GrandNationalSweepstake2014.pdf"><metadata
     id="metadata3064"><rdf:RDF><cc:Work
         rdf:about=""><dc:format>image/svg+xml</dc:format><dc:type
           rdf:resource="http://purl.org/dc/dcmitype/StillImage" /><dc:title></dc:title></cc:Work></rdf:RDF></metadata><defs
     id="defs3062"><clipPath
       clipPathUnits="userSpaceOnUse"
       id="clipPath3072"><path
         d="m 0,841.89 595.276,0 L 595.276,0 0,0 0,841.89 z"
         id="path3074"
         inkscape:connector-curvature="0" /></clipPath><clipPath
       clipPathUnits="userSpaceOnUse"
       id="clipPath4542"><path
         d="m 517.133,766.292 c 12.326,0 22.32,9.992 22.32,22.318 0,12.327 -9.994,22.32 -22.32,22.32 -12.326,0 -22.319,-9.993 -22.319,-22.32 0,-12.326 9.993,-22.318 22.319,-22.318"
         id="path4544"
         inkscape:connector-curvature="0" /></clipPath></defs><sodipodi:namedview
     pagecolor="#ffffff"
     bordercolor="#666666"
     borderopacity="1"
     objecttolerance="10"
     gridtolerance="10"
     guidetolerance="10"
     inkscape:pageopacity="0"
     inkscape:pageshadow="2"
     inkscape:window-width="1680"
     inkscape:window-height="1004"
     id="namedview3060"
     showgrid="false"
     showguides="true"
     inkscape:guide-bbox="true"
     fit-margin-top="0"
     fit-margin-left="0"
     fit-margin-right="0"
     fit-margin-bottom="0"
     inkscape:zoom="1"
     inkscape:cx="317.81561"
     inkscape:cy="157.23149"
     inkscape:window-x="0"
     inkscape:window-y="22"
     inkscape:window-maximized="1"
     inkscape:current-layer="g3066" /><g
     id="g3066"
     inkscape:groupmode="layer"
     inkscape:label="GrandNationalSweepstake2014"
     transform="matrix(1.25,0,0,-1.25,-10.326023,723.27072)"><g
       id="g16889"
       transform="matrix(0.92303334,0,0,0.92303334,139.72482,8.1847414)"><g
         id="g16865"
         transform="translate(-528,-192)"><g
           clip-path="url(#clipPath4542)"
           id="g16867"><path
             inkscape:connector-curvature="0"
             id="path16869"
             style="fill:#e41c29;fill-opacity:1;fill-rule:nonzero;stroke:none"
             d="m 517.775,786.495 0.33,-0.067 -0.097,-0.321 0.041,-0.024 0.488,0.574 -0.023,0.041 -0.741,-0.153 0.002,-0.05 z m 0.055,0.908 0.043,-0.025 0.426,0.461 -0.024,0.042 -0.619,-0.103 -0.002,-0.049 0.268,-0.066 -0.092,-0.26 z m -1.41,-3.611 -0.502,10e-4 -0.012,-0.048 0.198,-0.086 -0.104,-0.188 0.037,-0.033 0.399,0.309 -0.016,0.045 z m 1.066,0.84 -0.627,-0.021 -0.007,-0.049 0.255,-0.101 -0.125,-0.245 0.039,-0.031 0.483,0.401 -0.018,0.046 z m 0.508,0.553 0.348,-0.051 -0.082,-0.34 0.045,-0.021 0.47,0.626 -0.025,0.04 -0.76,-0.205 0.004,-0.049 z m -1.668,-2.501 -0.01,-0.048 0.2,-0.086 -0.104,-0.188 0.037,-0.032 0.397,0.308 -0.016,0.045 -0.504,10e-4 z m 3.137,-0.042 0.338,0.371 -0.024,0.043 -0.496,-0.086 -0.002,-0.049 0.209,-0.05 -0.068,-0.204 0.043,-0.025 z m 0.248,3.174 0.576,0.796 -0.027,0.039 -0.944,-0.273 0.004,-0.05 0.442,-0.056 -0.096,-0.435 0.045,-0.021 z m -1.818,-2.252 -0.629,0.001 -0.012,-0.049 0.256,-0.109 -0.137,-0.241 0.039,-0.032 0.498,0.385 -0.015,0.045 z m 1.152,4.302 0.432,-0.116 -0.157,-0.417 0.041,-0.026 0.682,0.708 -0.023,0.043 -0.971,-0.142 -0.004,-0.05 z m -0.289,-4.343 0.508,0.599 -0.026,0.041 -0.767,-0.161 0,-0.05 0.342,-0.07 -0.102,-0.335 0.045,-0.024 z m 1.572,6.052 0.037,-0.031 0.399,0.308 -0.016,0.044 -0.502,0 -0.01,-0.047 0.198,-0.086 -0.106,-0.188 z m -1.367,-0.841 0.039,-0.032 0.619,0.481 -0.015,0.046 -0.786,10e-4 -0.011,-0.049 0.324,-0.139 -0.17,-0.308 z m 2.58,-3.891 0,-0.049 0.266,-0.067 -0.092,-0.258 0.041,-0.026 0.428,0.461 -0.022,0.042 -0.621,-0.103 z m 1.871,4.424 0.041,-0.032 0.397,0.308 -0.016,0.045 -0.502,0 -0.01,-0.047 0.198,-0.087 -0.108,-0.187 z m -5.01,-6.68 -0.504,0.002 -0.007,-0.048 0.195,-0.086 -0.104,-0.187 0.038,-0.034 0.398,0.308 -0.016,0.045 z m 3.604,6.912 0.037,-0.032 0.496,0.385 -0.014,0.044 -0.63,0 -0.01,-0.047 0.252,-0.11 -0.131,-0.24 z m -0.963,-3.344 0.344,-0.066 -0.098,-0.336 0.045,-0.023 0.498,0.605 -0.025,0.043 -0.766,-0.174 0.002,-0.049 z m 0.482,4.474 2.555,-0.004 c 0,0 0.807,-0.304 1.865,-0.73 0.489,-0.196 0.746,-0.636 0.705,-1.136 0,0 0.42,-0.42 0.653,-0.685 0.277,-0.321 0.31,-0.765 0.09,-1.057 -0.215,-0.285 -0.524,-0.356 -0.655,-0.374 l -0.023,0.048 c 0.166,0.169 0.099,0.438 -0.049,0.653 -0.156,0.224 -0.295,0.265 -0.455,0.169 -0.07,-0.044 -0.16,-0.111 -0.16,-0.111 l 0.396,-0.633 -0.013,-0.046 c -0.317,-0.087 -0.754,-0.018 -0.957,0.24 -0.01,0 -0.01,0 -1.967,0 l -0.002,-0.05 1.094,-0.199 0.033,-0.075 -3.758,-4.42 0.035,-0.033 1.279,1.144 0.002,-0.998 -0.117,-0.301 0.119,-0.699 -0.041,-0.3 c 0,0 1.162,-0.997 1.17,-0.997 l 0.002,0 c 0,0 0.016,-0.01 0.031,-0.015 0.012,-0.006 0.028,-0.015 0.045,-0.025 0.016,-0.009 0.036,-0.019 0.055,-0.031 0.02,-0.012 0.041,-0.026 0.063,-0.041 0.023,-0.012 0.039,-0.032 0.062,-0.048 0.022,-0.019 0.043,-0.035 0.061,-0.056 0.019,-0.02 0.039,-0.042 0.058,-0.063 0.016,-0.023 0.037,-0.045 0.051,-0.068 0.018,-0.023 0.029,-0.048 0.045,-0.07 0.01,-0.025 0.025,-0.047 0.035,-0.071 0.012,-0.023 0.022,-0.046 0.029,-0.067 0.01,-0.022 0.016,-0.041 0.022,-0.06 0.008,-0.015 0.012,-0.033 0.015,-0.049 0.008,-0.029 0.014,-0.046 0.014,-0.046 l 0.051,-0.002 c 0,0 0.01,0.016 0.017,0.045 0.008,0.014 0.012,0.032 0.016,0.055 0.004,0.024 0.01,0.051 0.008,0.079 l 0,0.044 c -0.002,0.016 -0.006,0.032 -0.006,0.048 -0.004,0.033 -0.016,0.066 -0.025,0.1 -0.012,0.035 -0.028,0.07 -0.045,0.102 -0.018,0.034 -0.041,0.064 -0.067,0.095 -0.025,0.028 -0.05,0.057 -0.082,0.08 -0.029,0.026 -0.06,0.046 -0.091,0.063 -0.034,0.017 -0.063,0.032 -0.096,0.04 -0.012,0.005 -0.024,0.009 -0.035,0.012 0.146,0.033 0.293,0.065 0.435,0.098 l 0.002,0 c 0,-10e-4 0,-10e-4 0.002,-0.002 0.012,-0.005 0.027,-0.015 0.045,-0.024 0.018,-0.009 0.037,-0.019 0.055,-0.033 0.021,-0.01 0.041,-0.024 0.06,-0.039 0.026,-0.014 0.043,-0.033 0.065,-0.047 0.019,-0.02 0.043,-0.037 0.06,-0.057 0.022,-0.02 0.041,-0.042 0.059,-0.063 0.017,-0.023 0.035,-0.044 0.051,-0.068 0.015,-0.024 0.029,-0.048 0.043,-0.071 0.011,-0.025 0.029,-0.047 0.037,-0.07 0.011,-0.023 0.021,-0.047 0.031,-0.068 0.01,-0.021 0.016,-0.04 0.019,-0.059 0.008,-0.017 0.014,-0.034 0.018,-0.049 0.008,-0.03 0.014,-0.046 0.014,-0.046 l 0.051,-0.003 c 0,0 0.007,0.017 0.015,0.047 0.008,0.013 0.014,0.031 0.018,0.055 0.004,0.023 0.006,0.051 0.006,0.078 l 0,0.045 c -0.002,0.015 -0.004,0.031 -0.004,0.047 -0.004,0.033 -0.018,0.065 -0.026,0.1 -0.013,0.034 -0.027,0.069 -0.047,0.101 -0.017,0.035 -0.041,0.064 -0.064,0.096 -0.027,0.028 -0.053,0.057 -0.082,0.08 -0.031,0.025 -0.063,0.044 -0.094,0.062 -0.029,0.015 -0.058,0.031 -0.09,0.039 2.059,0.445 3.653,0.746 3.653,0.746 2.08,-1.23 1.949,-1.155 2.381,-1.394 0.793,-0.441 0.759,-1.736 -0.739,-1.736 -1.127,0 -3.215,-0.193 -4.486,-0.44 l 1.123,1.021 -0.035,0.035 c 0,0 -1.112,-0.806 -2.432,-1.466 l 0,-10e-4 c -0.715,-0.288 -1.793,-0.757 -2.904,-1.251 l 1.641,1.552 -0.038,0.038 c 0,0 -2.097,-1.688 -3.582,-2.477 -0.892,-0.404 -1.664,-0.756 -2.095,-0.954 -0.602,-0.275 -1.075,-0.352 -1.746,-0.114 -1.069,0.379 -1.485,0.527 -2.391,0.873 -0.527,0.2 -0.566,0.942 -0.004,1.121 0.246,0.079 0.887,0.283 1.311,0.418 0.185,-0.081 0.377,-0.164 0.568,-0.249 0.301,-0.133 0.603,-0.265 0.889,-0.389 0.142,-0.061 0.279,-0.121 0.408,-0.179 0.031,-0.014 0.064,-0.027 0.096,-0.042 0.017,-0.007 0.033,-0.014 0.048,-0.019 l 0.022,-0.011 0,-10e-4 0.004,-10e-4 0.002,-0.001 0.011,-0.006 c 0.061,-0.034 0.102,-0.062 0.149,-0.101 0.086,-0.074 0.144,-0.162 0.176,-0.249 0.033,-0.087 0.039,-0.169 0.035,-0.237 -0.002,-0.067 -0.018,-0.121 -0.028,-0.158 -0.011,-0.035 -0.015,-0.053 -0.015,-0.053 l 0.056,-0.024 c 0,0 0.008,0.021 0.026,0.057 0.014,0.038 0.033,0.095 0.043,0.17 0.008,0.076 0.01,0.171 -0.02,0.276 -0.029,0.104 -0.093,0.216 -0.187,0.311 -0.045,0.045 -0.106,0.096 -0.158,0.129 l -0.014,0.006 -0.004,0.004 -0.01,0.007 -0.023,0.012 c -0.014,0.008 -0.029,0.018 -0.043,0.025 -0.031,0.018 -0.061,0.035 -0.092,0.053 -0.123,0.07 -0.254,0.145 -0.389,0.22 -0.267,0.156 -0.552,0.319 -0.841,0.482 -0.633,0.364 -1.268,0.726 -1.707,0.979 -0.004,10e-4 -0.006,0.002 -0.006,0.003 0,0 2.218,0.698 5.05,1.476 l 0.456,-0.2 0.015,0.03 0.008,0.012 -0.268,0.214 -0.701,0.566 -0.347,0.12 -0.231,0.633 -0.314,0.177 -0.309,1.412 -0.049,-0.01 0.127,-1.542 -0.881,-0.494 0,2.038 -0.05,0.008 -0.256,-2.151 -1.186,-0.231 0.404,2.338 -0.052,0.011 -0.727,-2.389 -1.162,-0.079 0.842,2.494 -0.049,0.022 -1.24,-2.542 -0.002,0 -1.147,-0.075 1.338,2.632 -0.043,0.026 -1.832,-2.711 -1.22,-0.19 1.982,2.921 -0.039,0.031 -3.336,-3.877 -0.18,0.12 2.989,4.686 4.576,1.711 c 0,0 0.308,0.134 0.486,0.21 0.088,0.039 0.18,0.076 0.279,0.126 0.049,0.022 0.094,0.052 0.143,0.079 0.045,0.028 0.09,0.058 0.135,0.089 0.086,0.066 0.172,0.133 0.246,0.211 l 0.056,0.055 c 0.016,0.02 0.034,0.04 0.051,0.06 0.035,0.038 0.065,0.079 0.096,0.119 0.029,0.04 0.055,0.083 0.084,0.123 0.023,0.04 0.047,0.083 0.07,0.122 0.02,0.041 0.039,0.081 0.057,0.119 0.017,0.04 0.033,0.078 0.049,0.115 0.027,0.075 0.05,0.144 0.066,0.207 0.018,0.062 0.027,0.119 0.037,0.163 0.008,0.046 0.012,0.08 0.016,0.105 0.002,0.024 0.004,0.038 0.004,0.038 l -0.053,0.009 c 0,0 -0.004,-0.013 -0.01,-0.037 -0.004,-0.023 -0.012,-0.06 -0.023,-0.102 -0.012,-0.043 -0.026,-0.094 -0.049,-0.152 -0.018,-0.059 -0.047,-0.125 -0.076,-0.192 -0.018,-0.034 -0.035,-0.07 -0.055,-0.105 -0.019,-0.035 -0.043,-0.072 -0.064,-0.109 -0.026,-0.035 -0.049,-0.073 -0.077,-0.109 -0.029,-0.035 -0.054,-0.072 -0.085,-0.108 -0.032,-0.034 -0.063,-0.071 -0.098,-0.103 l -0.055,-0.05 -0.053,-0.048 c -0.074,-0.064 -0.156,-0.12 -0.24,-0.173 -0.043,-0.025 -0.086,-0.049 -0.129,-0.071 -0.047,-0.02 -0.088,-0.044 -0.134,-0.06 -0.088,-0.036 -0.184,-0.069 -0.274,-0.102 -0.184,-0.065 -0.353,-0.126 -0.5,-0.178 -0.144,-0.053 -0.266,-0.095 -0.351,-0.125 l -0.293,0.593 0.593,0.523 -0.029,0.04 -1.586,-0.973 -0.373,0.747 2.145,1.588 -0.036,0.045 -3.261,-1.95 -0.299,0.787 3.074,2.053 -0.025,0.042 -3.961,-2.174 -0.188,0.739 3.352,2.129 -0.026,0.044 -4.101,-2.092 -0.119,0.875 0,10e-4 3.384,1.824 -0.021,0.044 -4.189,-1.745 -0.018,0.853 3.418,1.335 -0.016,0.052 -4.15,-1.136 0.049,0.934 3.154,0.724 -0.01,0.048 -4.037,-0.552 0.129,0.805 2.971,0.319 0,0.052 -4.151,-0.068 0.063,0.681 3.308,0.023 0.004,0.049 -5.943,0.435 -0.01,0.055 0.963,0.335 -0.002,0.047 -2.461,0.939 0.004,0.053 0.985,0.079 0.009,0.052 -2.125,1.312 0.014,0.072 1.488,-0.085 0.018,0.047 -1.715,1.609 0.021,0.05 0.807,-0.154 0.024,0.039 -0.805,1.013 -0.498,1.435 0.049,0.025 0.771,-0.97 1.742,-1.002 0.037,0.035 -1.125,1.65 -0.419,1.843 0.05,0.023 0.908,-1.363 1.76,-1.432 0.033,0.036 -1.074,1.953 -0.371,2.385 0.059,0.012 1.051,-2.03 2.205,-1.832 0.041,0.034 -1.518,2.438 -0.344,2.924 0.049,0.015 0.947,-2.593 3.127,-2.815 3.946,-2.018 4.326,-6.014 1.685,-1.419 0.039,0.039 -0.738,0.961 0.008,0 0.002,10e-4 -0.01,-10e-4 1.736,0.448 -0.003,0.053 -1.506,0.088 -0.006,0.051 2.211,0.393 -0.006,0.05 -2.758,0.21 -0.002,0.052 3.516,0.59 1.398,-0.33 0.016,0.048 -1.334,0.612 -2.18,-0.047 -0.006,0.052 2.328,0.438 1.442,-0.492 0.019,0.047 -1.308,0.83 -1.549,0.064 0,0.055 1.732,0.269 1.518,-0.71 0.027,0.045 -1.25,1.174 -1.361,0.006 -0.006,0.055 1.656,0.371 1.471,-1.209 0.035,0.035 -1.131,1.652 -1.232,0.231 0.006,0.051 1.558,0.094 1.405,-1.708 0.041,0.028 -1.008,2.126 -1.348,0.44 0.01,0.053 1.717,-0.141 1.304,-2.242 0.045,0.021 -0.865,2.631 -1.691,0.605 0.011,0.052 2.045,-0.368 1.139,-2.705 0.051,0.013 -0.746,3.018 -1.815,1.028 0.026,0.05 2.156,-0.82 1.027,-3.023 0.051,0.011 -0.642,3.301 -1.971,1.436 0.029,0.046 2.295,-1.258 0.898,-3.181 0.053,0.012 -0.564,3.406 -2.065,1.832 0.032,0.039 2.414,-1.646 0.699,-3.241 0.049,0.009 -0.354,3.446 -2.058,2.228 0.035,0.041 2.386,-2.041 0.526,-3.14 0.053,0.004 -0.231,3.3 -1.949,2.547 0.037,0.034 2.295,-2.399 0.361,-2.717 0.051,0.004 -0.117,2.873 -1.783,2.731 0.043,0.032 2.062,-2.614 0.275,-1.951 0.053,0.005 -0.096,2.087 -1.269,2.831 0.045,0.025 1.574,-2.681 0.145,-1.1 0.05,0.005 0.077,1.253 -0.657,2.664 0.049,0.019 0.903,-2.236 0.052,0 0.555,2.233 0.055,-0.013 -0.182,-2.197 0.049,-0.015 1.529,2.198 0.043,-0.026 -0.99,-1.985 0.033,-0.037 2.334,1.666 0.029,-0.041 -3.558,-4.805 c 0,0 -1.155,-3.08 -1.526,-4.109 -0.076,-0.203 -0.205,-0.335 -0.4,-0.417 -0.111,-0.045 -2.887,-1.153 -2.887,-1.153 l -0.761,-0.672 -2.545,-0.299 0.007,-0.059 z m -3.906,19.368 c -12.08,0 -21.873,-9.793 -21.873,-21.874 0,-12.081 9.793,-21.874 21.873,-21.874 12.08,0 21.875,9.793 21.875,21.874 0,12.081 -9.795,21.874 -21.875,21.874 m 3.219,-22.38 0.418,-0.089 -0.131,-0.406 0.045,-0.024 0.617,0.711 -0.023,0.041 -0.924,-0.183 -0.002,-0.05 z m 1.721,-1.789 0.209,-0.051 -0.073,-0.202 0.043,-0.026 0.34,0.37 -0.021,0.042 -0.496,-0.084 -0.002,-0.049 z m -3.325,-6.9 c 0.022,-0.01 0.041,-0.024 0.063,-0.038 0.021,-0.012 0.039,-0.032 0.064,-0.047 0.02,-0.019 0.043,-0.035 0.061,-0.055 0.008,-0.006 0.012,-0.01 0.016,-0.016 0.015,-0.013 0.029,-0.03 0.044,-0.045 0.018,-0.023 0.036,-0.045 0.051,-0.068 0.018,-0.023 0.031,-0.047 0.047,-0.069 0.012,-0.024 0.029,-0.047 0.037,-0.071 0.012,-0.021 0.022,-0.044 0.029,-0.065 0.012,-0.022 0.018,-0.041 0.024,-0.059 0.008,-0.017 0.014,-0.033 0.018,-0.049 0.009,-0.03 0.015,-0.046 0.015,-0.046 l 0.051,-10e-4 c 0,0 0.008,0.016 0.017,0.046 0.006,0.013 0.01,0.032 0.012,0.055 0.004,0.024 0.008,0.051 0.006,0.079 -0.002,0.014 -0.002,0.029 -0.002,0.044 0,0.016 -0.002,0.031 -0.006,0.047 -0.004,0.034 -0.015,0.065 -0.025,0.101 -0.014,0.033 -0.029,0.068 -0.049,0.1 -0.01,0.021 -0.027,0.042 -0.041,0.061 l -0.025,0.032 c -0.028,0.029 -0.055,0.056 -0.084,0.079 -0.032,0.025 -0.063,0.044 -0.094,0.061 -0.033,0.016 -0.065,0.03 -0.096,0.038 -0.015,0.005 -0.033,0.01 -0.047,0.015 -0.007,10e-4 -0.017,0.002 -0.025,0.003 -0.006,0.002 -0.012,0.002 -0.018,0.002 -0.027,0.006 -0.052,0.006 -0.076,0.005 -0.023,10e-4 -0.043,-0.002 -0.06,-0.004 -0.03,-0.005 -0.047,-0.01 -0.047,-0.01 l -0.004,-0.047 0,-0.003 c 0,0 0.015,-0.009 0.043,-0.021 0.012,-0.005 0.027,-0.014 0.045,-0.023 0.017,-0.009 0.037,-0.019 0.056,-0.031 m 1.985,-0.796 c -0.053,-0.016 -0.114,-0.033 -0.18,-0.052 -0.117,-0.035 -0.258,-0.074 -0.412,-0.121 -0.123,-0.036 -0.254,-0.076 -0.393,-0.12 -0.07,-0.02 -0.142,-0.041 -0.216,-0.064 l -0.221,-0.075 c -0.301,-0.105 -0.623,-0.216 -0.943,-0.327 -0.204,-0.072 -0.407,-0.15 -0.604,-0.225 -0.111,-0.043 -0.223,-0.084 -0.332,-0.126 -0.1,-0.037 -0.195,-0.075 -0.291,-0.113 -0.045,-0.017 -0.092,-0.035 -0.137,-0.054 -0.103,-0.041 -0.207,-0.083 -0.301,-0.122 l -0.08,-0.033 c -0.154,-0.064 -0.291,-0.122 -0.406,-0.171 -0.058,-0.025 -0.113,-0.049 -0.158,-0.069 -0.139,-0.058 -0.217,-0.092 -0.217,-0.092 l -0.015,-0.007 0.033,-0.077 0.015,0.005 c 0,0 0.078,0.028 0.219,0.077 0.049,0.017 0.106,0.038 0.164,0.059 0.119,0.042 0.258,0.091 0.416,0.149 l 0.115,0.044 c 0.086,0.032 0.176,0.066 0.27,0.098 l 0.135,0.048 c 0.095,0.034 0.195,0.069 0.297,0.106 0.107,0.039 0.214,0.08 0.328,0.12 0.197,0.074 0.4,0.149 0.607,0.22 0.318,0.114 0.637,0.228 0.938,0.335 0.142,0.05 0.289,0.104 0.431,0.152 0.102,0.035 0.199,0.068 0.293,0.1 l 0.096,0.033 c 0.154,0.053 0.293,0.101 0.406,0.143 0.067,0.022 0.123,0.042 0.174,0.06 l 0.234,0.086 -0.023,0.08 -0.242,-0.067 z m -4.244,-0.738 0.179,0.059 c 0.235,0.075 0.463,0.151 0.684,0.228 0.088,0.029 0.17,0.058 0.25,0.085 l 0.066,0.022 0.282,0.095 c 0.119,0.039 0.224,0.075 0.31,0.106 0.041,0.014 0.078,0.028 0.111,0.039 0.104,0.037 0.161,0.059 0.161,0.059 l 0.017,0.006 -0.025,0.078 -0.016,-0.003 c 0,0 -0.06,-0.013 -0.164,-0.038 l -0.084,-0.021 c -0.096,-0.023 -0.215,-0.05 -0.351,-0.086 l -0.29,-0.077 c -0.07,-0.019 -0.144,-0.043 -0.22,-0.066 l -0.098,-0.03 c -0.203,-0.063 -0.433,-0.137 -0.691,-0.221 -0.19,-0.062 -0.373,-0.129 -0.551,-0.193 l -0.133,-0.047 -0.066,-0.024 c -0.192,-0.069 -0.371,-0.135 -0.524,-0.196 -0.07,-0.026 -0.133,-0.051 -0.187,-0.075 l -0.049,-0.02 -0.182,-0.073 c -0.099,-0.042 -0.156,-0.064 -0.156,-0.064 l -0.016,-0.008 0.03,-0.077 c 0,0 0.076,0.022 0.179,0.054 0.036,0.011 0.077,0.022 0.122,0.038 l 0.132,0.04 c 0.053,0.016 0.112,0.034 0.172,0.054 0.108,0.036 0.229,0.073 0.356,0.114 0.08,0.025 0.162,0.05 0.244,0.076 0.164,0.054 0.334,0.109 0.508,0.166 m 3.566,6.298 -0.002,-0.049 0.268,-0.066 -0.09,-0.26 0.041,-0.025 0.426,0.461 -0.022,0.043 -0.621,-0.104 z m -0.453,0.638 0.547,0.814 -0.028,0.037 -0.931,-0.306 0.004,-0.049 0.443,-0.04 -0.08,-0.438 0.045,-0.018 z m 2.908,2.951 -0.625,-0.056 -0.006,-0.048 0.262,-0.088 -0.109,-0.251 0.037,-0.028 0.463,0.426 -0.022,0.045 z m -2.918,-6.988 -1.291,1.581 -0.068,-0.029 0.332,-1.881 0.679,-0.789 c 0,0 0.022,-0.01 0.036,-0.017 0.013,-0.006 0.031,-0.014 0.048,-0.024 0.016,-0.008 0.036,-0.018 0.055,-0.03 0.02,-0.011 0.043,-0.024 0.065,-0.039 0.021,-0.012 0.041,-0.032 0.064,-0.047 0.018,-0.018 0.041,-0.034 0.061,-0.055 0.019,-0.018 0.039,-0.041 0.058,-0.062 0.018,-0.022 0.037,-0.043 0.051,-0.067 0.02,-0.021 0.031,-0.046 0.047,-0.069 0.012,-0.024 0.029,-0.046 0.037,-0.069 0.012,-0.024 0.023,-0.045 0.031,-0.068 0.01,-0.021 0.016,-0.04 0.024,-0.057 0.006,-0.017 0.013,-0.035 0.015,-0.05 0.01,-0.029 0.018,-0.046 0.018,-0.046 l 0.049,-10e-4 c 0,0 0.007,0.017 0.017,0.045 0.004,0.014 0.012,0.033 0.014,0.058 0.004,0.023 0.008,0.05 0.006,0.078 l 0,0.044 c -0.004,0.015 -0.006,0.031 -0.008,0.047 -0.004,0.033 -0.018,0.066 -0.027,0.1 -0.014,0.033 -0.028,0.068 -0.049,0.1 -0.016,0.034 -0.043,0.064 -0.067,0.094 -0.025,0.028 -0.054,0.056 -0.084,0.078 -0.029,0.026 -0.062,0.043 -0.091,0.062 -0.036,0.014 -0.065,0.029 -0.096,0.039 -0.018,0.005 -0.031,0.009 -0.047,0.012 -0.002,0 -0.002,10e-4 -0.002,10e-4 0.016,0.005 0.033,0.008 0.051,0.014 0.127,0.031 0.252,0.063 0.379,0.096 0.006,-0.002 0.01,-0.006 0.017,-0.009 0.016,-0.005 0.032,-0.013 0.047,-0.023 0.018,-0.009 0.035,-0.018 0.055,-0.03 0.023,-0.01 0.041,-0.025 0.062,-0.039 0.024,-0.012 0.043,-0.032 0.065,-0.047 0.019,-0.018 0.045,-0.035 0.062,-0.055 0.024,-0.018 0.039,-0.041 0.061,-0.061 0.016,-0.022 0.035,-0.044 0.051,-0.067 0.017,-0.023 0.031,-0.048 0.045,-0.07 0.013,-0.024 0.029,-0.046 0.037,-0.071 0.011,-0.021 0.025,-0.043 0.031,-0.065 0.012,-0.022 0.018,-0.04 0.023,-0.058 0.008,-0.017 0.016,-0.035 0.02,-0.049 0.006,-0.031 0.014,-0.047 0.014,-0.047 l 0.05,0 c 0,0 0.008,0.016 0.018,0.045 0.004,0.014 0.012,0.033 0.012,0.056 0.006,0.023 0.008,0.05 0.006,0.078 l 0,0.045 c -0.002,0.015 -0.004,0.031 -0.006,0.046 -0.004,0.035 -0.016,0.066 -0.028,0.101 -0.013,0.034 -0.025,0.068 -0.048,0.1 -0.016,0.033 -0.043,0.064 -0.067,0.095 -0.027,0.027 -0.053,0.055 -0.086,0.077 -0.027,0.025 -0.06,0.044 -0.092,0.062 -0.033,0.015 -0.064,0.029 -0.097,0.038 -0.006,0.002 -0.012,0.004 -0.018,0.005 0.354,0.09 0.709,0.175 1.067,0.261 l -1.155,0.643 -0.453,-0.01 z m 2.16,8.367 0.323,-0.139 -0.17,-0.307 0.039,-0.032 0.621,0.481 -0.02,0.045 -0.783,10e-4 -0.01,-0.049 z m -11.375,7.16 -1.467,-0.748 -0.08,0.434 -0.07,-0.007 -0.008,-0.721 0.059,-0.027 1.603,1.012 -0.037,0.057 z m 1.405,-1.769 -2.051,-1.113 -0.08,0.435 -0.067,-0.008 -0.011,-0.721 0.056,-0.031 2.19,1.379 -0.037,0.059 z m -0.67,0.907 -1.942,-1.026 -0.078,0.434 -0.066,-0.01 -0.01,-0.72 0.053,-0.026 2.078,1.29 -0.035,0.058 z m 3.031,-3.543 -1.465,-0.748 -0.08,0.426 -0.066,-0.009 -0.01,-0.71 0.051,-0.028 1.605,1.01 -0.035,0.059 z m -0.797,0.872 -1.769,-0.919 -0.079,0.434 -0.068,-0.01 -0.01,-0.717 0.051,-0.033 1.912,1.188 -0.037,0.057 z m -0.791,0.855 -2.01,-1.049 -0.08,0.435 -0.068,-0.007 -0.008,-0.722 0.057,-0.028 2.144,1.313 -0.035,0.058 z m -4.76,1.109 0.022,0.083 -4.512,1.237 -2.031,1.654 -0.057,-0.055 1.881,-1.906 4.697,-1.013 z m 0.127,0.919 0.03,0.082 -3.821,1.234 -1.888,1.775 -0.055,-0.061 1.693,-2.001 4.041,-1.029 z m 12.211,-6.187 0.322,-0.14 -0.171,-0.306 0.037,-0.033 0.621,0.479 -0.014,0.046 -0.785,0.003 -0.01,-0.049 z m -16.83,4.351 1.662,-0.485 3.291,-0.301 0.01,0.089 -4.945,0.779 -0.018,-0.082 z m 0.428,5.672 -0.061,-0.048 1.381,-1.902 3.34,-1.108 0.033,0.079 -3.096,1.276 -1.597,1.703 z m 11.078,-8.506 -1.049,-0.5 -0.082,0.397 -0.066,-0.003 -0.01,-0.687 0.06,-0.026 1.184,0.762 -0.037,0.057 z m -6.953,3.015 -6.25,1.289 -0.024,-0.08 1.621,-0.594 4.635,-0.704 0.018,0.089 z m 1.836,2.867 0.039,0.079 -2.891,1.389 -1.76,2.342 -0.064,-0.045 1.572,-2.565 3.104,-1.2 z m 12.213,-17.966 c 0,0 0.031,0.003 0.084,0.011 0.019,0.003 0.037,0.006 0.058,0.01 0.045,0.006 0.1,0.015 0.16,0.026 0.104,0.018 0.205,0.039 0.307,0.061 0.094,0.019 0.195,0.042 0.297,0.066 l 0.06,0.014 c 0.114,0.024 0.233,0.05 0.338,0.077 0.119,0.029 0.221,0.056 0.303,0.079 0.059,0.014 0.109,0.031 0.152,0.043 0.024,0.008 0.041,0.014 0.061,0.019 0.051,0.016 0.08,0.027 0.08,0.027 l 0.014,0.005 -0.016,0.077 -0.016,-0.001 c 0,0 -0.031,-0.002 -0.084,-0.008 -0.017,-0.003 -0.039,-0.005 -0.062,-0.008 -0.045,-0.005 -0.098,-0.012 -0.158,-0.021 -0.09,-0.013 -0.194,-0.03 -0.309,-0.05 -0.111,-0.021 -0.234,-0.046 -0.351,-0.071 -0.215,-0.052 -0.452,-0.117 -0.649,-0.178 -0.06,-0.018 -0.115,-0.038 -0.16,-0.053 l -0.049,-0.015 c -0.049,-0.018 -0.08,-0.03 -0.08,-0.03 l -0.014,-0.004 0.018,-0.078 0.016,0.002 z m 2.648,1.175 c 0,0 0.039,0.003 0.106,0.013 0.021,0.002 0.044,0.005 0.074,0.008 0.056,0.007 0.125,0.015 0.203,0.027 0.254,0.037 0.56,0.088 0.842,0.14 l 0.072,0.014 c 0.127,0.026 0.254,0.05 0.373,0.078 0.061,0.011 0.119,0.023 0.176,0.035 0.076,0.016 0.146,0.03 0.215,0.045 0.074,0.017 0.142,0.034 0.199,0.047 l 0.074,0.018 c 0.066,0.016 0.102,0.026 0.102,0.026 l 0.015,0.004 -0.013,0.079 -0.016,0 c 0,0 -0.039,-0.002 -0.106,-0.01 l -0.066,-0.007 c -0.059,-0.005 -0.133,-0.014 -0.215,-0.024 l -0.021,-0.003 c -0.112,-0.015 -0.239,-0.03 -0.371,-0.053 -0.141,-0.023 -0.291,-0.052 -0.438,-0.079 l -0.012,-0.002 c -0.273,-0.052 -0.578,-0.116 -0.834,-0.176 -0.074,-0.017 -0.138,-0.035 -0.193,-0.048 -0.027,-0.009 -0.057,-0.015 -0.08,-0.021 -0.064,-0.017 -0.102,-0.028 -0.102,-0.028 l -0.017,-0.004 0.017,-0.08 0.016,10e-4 z m -2.275,0.242 c 0.017,-0.009 0.035,-0.02 0.054,-0.031 0.02,-0.011 0.041,-0.026 0.061,-0.041 0.021,-0.013 0.041,-0.032 0.064,-0.048 0.008,-0.01 0.02,-0.02 0.034,-0.029 0.009,-0.008 0.019,-0.018 0.029,-0.027 0.019,-0.02 0.037,-0.043 0.057,-0.063 0.015,-0.023 0.035,-0.045 0.05,-0.069 0.016,-0.023 0.03,-0.046 0.043,-0.069 0.012,-0.026 0.028,-0.047 0.037,-0.071 0.01,-0.023 0.022,-0.045 0.028,-0.067 0.009,-0.022 0.015,-0.041 0.023,-0.058 0.006,-0.019 0.014,-0.035 0.016,-0.051 0.01,-0.03 0.013,-0.047 0.013,-0.047 l 0.053,-0.002 c 0,0 0.006,0.017 0.016,0.046 0.006,0.014 0.012,0.032 0.015,0.056 0.004,0.024 0.008,0.05 0.008,0.078 l 0,0.045 c -0.002,0.014 -0.004,0.031 -0.008,0.047 0,0.032 -0.013,0.066 -0.023,0.101 -0.012,0.032 -0.025,0.068 -0.045,0.1 -0.018,0.035 -0.043,0.065 -0.066,0.096 -0.006,0.005 -0.01,0.012 -0.016,0.017 -0.021,0.023 -0.043,0.045 -0.066,0.063 -0.028,0.026 -0.063,0.044 -0.09,0.064 -0.033,0.014 -0.065,0.03 -0.1,0.04 -0.015,0.004 -0.027,0.01 -0.043,0.013 -0.012,0.002 -0.025,0.005 -0.037,0.006 -0.002,0.002 -0.004,0.002 -0.008,0.002 -0.025,0.007 -0.052,0.007 -0.074,0.007 -0.021,10e-4 -0.043,0 -0.059,-0.003 -0.033,-0.006 -0.05,-0.01 -0.05,-0.01 l -0.004,-0.039 0,-0.011 c 0,0 0.015,-0.007 0.041,-0.021 0.013,-0.005 0.027,-0.014 0.047,-0.024 m 2.418,7.589 c 0.002,-0.015 0.007,-0.03 0.009,-0.043 0.006,-0.015 0.008,-0.029 0.014,-0.04 0.008,-0.011 0.014,-0.023 0.02,-0.032 0.005,-0.011 0.011,-0.019 0.015,-0.027 0.008,-0.007 0.014,-0.013 0.02,-0.019 0.023,-0.024 0.037,-0.035 0.037,-0.035 l 0.031,0.024 c 0,0 -0.002,0.017 -0.008,0.043 0,0.006 0,0.013 -0.002,0.02 l 0,0.026 c -0.002,0.016 -0.002,0.035 0.002,0.055 0,0.02 0.006,0.04 0.012,0.06 0.002,0.009 0.008,0.021 0.012,0.029 0.008,0.009 0.01,0.021 0.015,0.03 0.012,0.018 0.022,0.038 0.036,0.049 0.005,0.006 0.007,0.012 0.023,0.023 l 0.018,0.017 0.009,0.007 0.002,0 c 0.02,0.011 0.037,0.025 0.057,0.032 0.021,0.01 0.045,0.012 0.066,0.017 0.008,0.004 0.02,10e-4 0.032,0.004 0.009,10e-4 0.021,0.002 0.031,0 0.01,0 0.019,-0.002 0.031,-0.002 0.01,-0.002 0.018,-0.004 0.027,-0.006 0.022,-0.004 0.036,-0.008 0.051,-0.013 0.008,-0.004 0.014,-0.007 0.022,-0.009 0.007,-0.004 0.013,-0.008 0.019,-0.013 0.026,-0.015 0.039,-0.022 0.039,-0.022 l 0.041,0.033 c 0,0 -0.006,0.017 -0.017,0.044 -0.002,0.007 -0.006,0.013 -0.012,0.021 -0.006,0.009 -0.014,0.017 -0.02,0.026 -0.009,0.009 -0.017,0.02 -0.027,0.029 -0.01,0.012 -0.021,0.019 -0.035,0.027 -0.012,0.007 -0.023,0.017 -0.037,0.025 -0.014,0.007 -0.031,0.012 -0.047,0.019 -0.016,0.007 -0.033,0.011 -0.049,0.014 -0.017,0.002 -0.039,0.006 -0.056,0.007 -0.04,-10e-4 -0.081,-0.003 -0.12,-0.016 -0.039,-0.01 -0.074,-0.034 -0.111,-0.054 l -0.01,-0.007 -0.002,-0.003 -0.004,-0.003 -0.009,-0.009 -0.018,-0.017 c -0.01,-0.007 -0.025,-0.027 -0.041,-0.045 -0.029,-0.037 -0.041,-0.074 -0.057,-0.109 -0.007,-0.037 -0.015,-0.073 -0.013,-0.107 0.002,-0.018 0.002,-0.034 0.004,-0.05 m 0.088,1.465 0.003,-0.017 0.004,-0.015 0.016,-0.036 c 0.006,-0.018 0.027,-0.048 0.045,-0.071 0.01,-0.014 0.019,-0.025 0.029,-0.033 0.012,-0.008 0.02,-0.017 0.029,-0.026 0.02,-0.014 0.038,-0.024 0.055,-0.034 l 0.018,-0.009 c 0.051,-0.02 0.097,-0.03 0.14,-0.03 0.008,0 0.014,10e-4 0.028,0.002 0.025,0.002 0.049,0.004 0.072,0.012 l 0.035,0.012 0.01,0.004 0.017,0.008 0.01,0.006 c 0.024,0.014 0.086,0.06 0.106,0.094 0.025,0.032 0.043,0.069 0.052,0.115 l 0.004,0.014 c 0.002,0.013 0.004,0.026 0.004,0.04 0,0.016 -0.002,0.031 -0.002,0.047 0,0.022 -0.007,0.042 -0.013,0.058 l -0.004,0.016 c -0.02,0.038 -0.032,0.054 -0.033,0.055 l -0.008,0.012 -0.061,-0.023 0,-0.012 c 0,0 -0.004,-0.02 -0.004,-0.046 0,-0.007 -0.002,-0.011 -0.004,-0.018 -0.002,-0.01 -0.002,-0.021 -0.005,-0.032 -0.004,-0.008 -0.01,-0.016 -0.012,-0.025 -0.004,-0.006 -0.006,-0.011 -0.01,-0.017 l -0.008,-0.012 c 0,-0.003 -0.004,-0.007 -0.01,-0.011 -0.002,-0.004 -0.005,-0.007 -0.007,-0.012 -0.004,-0.005 -0.014,-0.012 -0.024,-0.02 -0.006,-0.005 -0.01,-0.008 -0.019,-0.011 l -0.01,-0.005 -0.002,-0.003 -0.025,-0.01 c -0.012,-0.003 -0.032,-0.007 -0.059,-0.007 -0.018,0 -0.039,0.005 -0.057,0.013 -0.006,0.003 -0.011,0.007 -0.017,0.009 -0.004,0.002 -0.01,0.005 -0.01,0.005 -0.006,0.006 -0.012,0.01 -0.018,0.014 -0.002,0.002 -0.004,0.003 -0.005,0.004 -0.004,0.006 -0.006,0.01 -0.01,0.012 -0.006,0.003 -0.008,0.005 -0.012,0.015 l -0.016,0.024 0,0.006 0,0.001 c -0.005,0.009 -0.009,0.019 -0.013,0.033 -0.002,0.009 -0.002,0.017 -0.002,0.026 l 0,0.01 0,0.02 c 0,0.003 0.002,0.009 0.002,0.015 0,0.005 0,0.009 0.004,0.014 0.002,0.004 0.004,0.01 0.004,0.016 0.002,0.005 0.003,0.009 0.005,0.012 l 0.01,0.026 c 0.006,0.007 0.01,0.013 0.014,0.02 0.006,0.006 0.008,0.013 0.008,0.013 0.029,0.024 0.043,0.038 0.043,0.038 l 0.007,0.01 -0.035,0.071 -0.013,-0.003 c 0,0 -0.02,-0.002 -0.059,-0.012 l -0.016,-0.006 c -0.015,-0.008 -0.037,-0.017 -0.054,-0.032 -0.012,-0.01 -0.026,-0.02 -0.035,-0.032 -0.01,-0.006 -0.018,-0.016 -0.024,-0.026 -0.004,-0.005 -0.008,-0.01 -0.012,-0.016 -0.027,-0.042 -0.043,-0.079 -0.048,-0.115 -0.006,-0.024 -0.008,-0.049 -0.006,-0.069 -0.004,-0.023 0.002,-0.045 0.006,-0.066 l 0.002,-0.01 z m 1.779,-1.118 c 0.01,-0.01 0.017,-0.022 0.025,-0.033 0.01,-0.011 0.016,-0.023 0.026,-0.035 0.013,-0.024 0.029,-0.049 0.039,-0.075 0.011,-0.026 0.021,-0.053 0.027,-0.081 0.008,-0.028 0.014,-0.056 0.014,-0.086 0.002,-0.014 0.002,-0.027 0.002,-0.042 0.002,-0.016 0,-0.03 -0.002,-0.043 -0.002,-0.03 -0.01,-0.058 -0.016,-0.085 -0.006,-0.015 -0.01,-0.026 -0.016,-0.04 l -0.019,-0.042 0.041,-0.024 0.025,0.039 c 0.01,0.015 0.016,0.031 0.022,0.046 0.013,0.031 0.023,0.063 0.031,0.095 0.002,0.016 0.004,0.032 0.006,0.049 0.002,0.016 0.006,0.033 0.006,0.049 0,0.034 -0.002,0.068 -0.008,0.101 -0.002,0.033 -0.01,0.065 -0.022,0.097 -0.007,0.033 -0.021,0.064 -0.035,0.095 -0.007,0.015 -0.015,0.03 -0.025,0.044 -0.008,0.015 -0.016,0.03 -0.025,0.043 -0.02,0.028 -0.041,0.055 -0.065,0.08 l -0.004,0.004 c -0.203,0.191 -0.406,0.38 -0.609,0.574 l -0.147,-0.173 c 0.227,-0.165 0.45,-0.335 0.672,-0.5 0.02,-0.019 0.037,-0.036 0.057,-0.057 m -10.867,0.038 -0.022,0.161 -0.064,0.004 -0.069,-0.417 0.055,-0.034 0.777,0.543 -0.037,0.057 -0.64,-0.314 z m -0.293,1.833 -0.744,-0.326 -0.067,0.301 -0.064,0 -0.03,-0.574 0.053,-0.029 0.885,0.575 -0.033,0.053 z m 0.465,-2.698 -0.014,0.157 -0.067,0.006 -0.07,-0.417 0.049,-0.037 0.566,0.412 -0.035,0.055 -0.429,-0.176 z m 0.365,2.042 -0.906,-0.399 -0.032,0.255 -0.06,0.005 -0.063,-0.523 0.053,-0.038 1.043,0.643 -0.035,0.057 z m 10.187,-9.567 c -0.107,-0.017 -0.213,-0.032 -0.316,-0.048 -0.108,-0.016 -0.213,-0.036 -0.305,-0.054 -0.06,-0.009 -0.117,-0.021 -0.172,-0.033 -0.039,-0.007 -0.076,-0.014 -0.113,-0.021 l -0.117,-0.023 c -0.047,-0.009 -0.094,-0.018 -0.139,-0.028 -0.099,-0.02 -0.191,-0.038 -0.267,-0.055 -0.043,-0.009 -0.081,-0.018 -0.114,-0.024 l -0.16,-0.037 0.016,-0.081 0.162,0.019 c 0.035,0.004 0.072,0.009 0.117,0.014 0.078,0.01 0.168,0.02 0.27,0.034 0.08,0.012 0.164,0.024 0.255,0.037 l 0.071,0.009 c 0.07,0.009 0.142,0.02 0.217,0.032 0.121,0.02 0.246,0.036 0.377,0.054 0.082,0.013 0.162,0.023 0.244,0.035 0.082,0.013 0.168,0.024 0.248,0.036 l 0.068,0.011 0.303,0.048 c 0.137,0.018 0.263,0.039 0.379,0.058 0.058,0.01 0.111,0.019 0.166,0.027 0.09,0.014 0.172,0.03 0.244,0.042 0.053,0.01 0.098,0.019 0.139,0.024 l 0.162,0.029 -0.012,0.082 -0.016,-0.001 c 0,0 -0.054,-0.003 -0.146,-0.009 l -0.049,-0.003 c -0.092,-0.007 -0.205,-0.015 -0.342,-0.03 -0.056,-0.006 -0.119,-0.013 -0.183,-0.019 -0.116,-0.011 -0.235,-0.022 -0.364,-0.039 l -0.304,-0.041 c -0.061,-0.008 -0.319,-0.045 -0.319,-0.045 m -13.414,3.555 -0.01,-0.048 0.198,-0.085 -0.106,-0.187 0.039,-0.033 0.399,0.307 -0.016,0.046 -0.504,0 z m 0.949,-8.064 -0.711,0.315 0.69,0.361 -0.018,0.048 -1.041,-0.29 c -0.043,-0.011 -0.078,-0.043 -0.091,-0.088 -0.026,-0.071 0.015,-0.147 0.085,-0.171 l 0.014,-0.002 1.012,-0.326 c 0.17,-0.052 0.338,-0.112 0.506,-0.17 l 0.509,-0.174 0.016,0.047 -0.482,0.228 c -0.164,0.075 -0.325,0.151 -0.489,0.222 m 0.463,8.064 -0.008,-0.048 0.196,-0.085 -0.104,-0.187 0.037,-0.033 0.399,0.307 -0.016,0.046 -0.504,0 z" /></g></g><path
         inkscape:connector-curvature="0"
         id="path16871"
         style="fill:#110f0d;fill-opacity:1;fill-rule:nonzero;stroke:none"
         d="m -127.3982,617.33911 -2.62223,0 c -5.60994,0 -7.63292,-2.55848 -9.77916,-7.92618 l -2.02723,-5.0702 -0.59924,0 0,13.59137 36.96615,0 0,-13.59137 -0.59499,0 -2.02298,5.0702 c -2.14623,5.3677 -4.11821,7.92618 -9.77916,7.92618 l -2.62648,0 0,-34.40343 c 0,-2.68598 0.83725,-5.2487 4.95121,-5.9032 l 1.48748,-0.238 0,-0.59924 -19.79631,0 0,0.59924 1.49598,0.238 c 4.10546,0.6545 4.94696,3.21722 4.94696,5.9032 l 0,34.40343 z m 34.645672,0.59499 0,-17.94758 c 1.130489,1.90823 4.526207,5.60994 9.239413,5.60994 4.649457,0 9.536911,-2.56698 9.536911,-10.67589 l 0,-14.49237 c 0,-1.54698 0.599244,-2.80073 2.571225,-3.33621 l 1.13049,-0.29751 0,-0.59924 -13.956868,0 0,0.59924 1.138988,0.29751 c 1.959232,0.53548 2.562727,1.78923 2.562727,3.33621 l 0,13.89738 c 0,5.48244 -3.166221,7.45443 -6.264442,7.45443 -2.141979,0 -4.292459,-1.13475 -5.958444,-2.44798 l 0,-18.90383 c 0,-1.54698 0.594995,-2.80073 2.562726,-3.33621 l 1.13049,-0.29751 0,-0.59924 -13.952618,0 0,0.59924 1.13474,0.29751 c 1.96773,0.53548 2.562724,1.78923 2.562724,3.33621 l 0,33.27719 c 0,1.54699 -0.594994,2.79648 -2.562724,3.33196 l -1.13474,0.30176 0,0.59499 10.259402,0 z m 38.100892,-12.33764 c 7.50968,0 11.746889,-5.01495 11.746889,-10.91814 l 0,-0.29325 -18.784823,0 c -0.05949,-0.65874 -0.05949,-1.37273 -0.05949,-1.61498 0,-7.68819 4.113962,-13.23438 10.61215,-13.23438 4.173461,0 7.097433,2.74547 8.172673,5.1297 l 0.531245,-0.24225 c -0.471746,-2.56272 -4.351958,-9.11616 -12.218635,-9.11616 -8.47442,0 -13.595621,6.37494 -13.595621,15.25736 0,7.87517 5.121201,15.0321 13.595621,15.0321 m -7.037934,-10.55689 12.103886,0 0,1.90398 c 0,3.99496 -1.130489,7.98992 -5.129702,7.98992 -4.292459,0 -6.260191,-3.93121 -6.974184,-9.8939" /><path
         inkscape:connector-curvature="0"
         id="path16873"
         style="fill:#110f0d;fill-opacity:1;fill-rule:nonzero;stroke:none"
         d="m 27.987,581.259 c 0,-2.79 0.868,-5.206 5.14,-6.071 l 1.548,-0.312 0,-0.311 -20.566,0 0,0.311 1.548,0.312 c 4.276,0.865 5.144,3.281 5.144,6.071 l 0,29.919 c 0,2.79 -0.868,5.263 -5.144,6.132 l -1.548,0.311 0,0.306 20.566,0 0,-0.306 -1.548,-0.311 c -4.272,-0.869 -5.14,-3.342 -5.14,-6.132 l 0,-29.919 z m 49.799,27.628 0,-35.247 -0.429,0 -31.532,37.164 0.188,-22.917 c 0.062,-10.41 3.342,-11.773 7.12,-12.764 l 0.991,-0.247 0,-0.311 -16.786,0 0,0.311 0.991,0.247 c 3.719,0.93 7.128,2.417 7.128,12.764 l 0,23.229 -0.746,0.802 c -3.286,3.597 -5.39,5.079 -8.798,5.702 l 0,0.307 15.057,0 c 1.548,-2.79 3.777,-5.513 8.733,-11.396 l 17.715,-20.939 -0.188,22.304 c -0.057,7.43 -2.786,8.979 -6.628,9.535 l -1.426,0.189 0,0.307 38.968,0 c 16.106,0 24.344,-10.158 24.344,-21.492 0,-11.338 -8.238,-21.87 -24.344,-21.87 l -21.681,0 0,0.311 1.482,0.247 c 4.4,0.745 5.208,3.285 5.208,6.136 l 0,27.628 c 0,6.628 -3.408,8.733 -7.681,8.733 -4.278,0 -7.686,-2.105 -7.686,-8.733 m 29.056,-34.011 c 11.522,0 17.592,8.177 17.592,21.37 0,13.199 -6.628,21.374 -18.15,21.374 l -5.948,0 0,-36.305 c 0,-3.587 0.808,-6.439 5.147,-6.439 l 1.359,0 z m 48.628,0 c 6.939,0 10.594,1.983 13.568,7.062 l 2.908,4.891 0.31,0 0,-12.264 -38.282,0 0,0.311 1.548,0.247 c 4.272,0.684 5.142,3.346 5.142,6.136 l 0,30.102 c 0,2.912 -0.87,5.079 -5.142,5.948 l -1.548,0.311 0,0.307 36.612,0 0,-12.264 -0.312,0 -2.912,5.264 c -2.912,5.329 -6.934,6.693 -14.435,6.693 l -5.079,0 0,-20.505 3.097,0.061 c 6.632,0.122 8.86,0.434 10.965,7.123 l 0.684,2.172 0.307,0 0,-19.019 -0.307,0 -0.684,2.106 c -2.167,6.75 -4.273,7 -10.965,7.122 l -3.097,0.062 0,-15.611 c 0,-3.714 1.363,-6.255 5.763,-6.255 l 1.859,0 z m 40.572,43.051 c 9.725,0 16.542,-5.329 16.542,-12.948 0,-7.681 -6.817,-13.005 -16.542,-13.005 l -2.661,0 0,0.368 0.123,0 c 7.061,0 11.211,4.896 11.211,12.637 0,7.746 -4.15,12.641 -11.211,12.641 l -2.228,0 0,-35.743 c 0,-4.649 1.176,-5.697 6.255,-6.754 l 1.175,-0.247 0,-0.311 -21.37,0 0,0.311 1.548,0.312 c 4.273,0.865 5.142,3.281 5.142,6.071 l 0,29.98 c 0,2.783 -0.869,5.201 -5.142,6.07 l -1.548,0.311 0,0.307 18.706,0 z m 39.771,-43.051 c 6.939,0 10.593,1.983 13.566,7.062 l 2.913,4.891 0.307,0 0,-12.264 -38.284,0 0,0.311 1.549,0.247 c 4.277,0.684 5.145,3.346 5.145,6.136 l 0,30.102 c 0,2.912 -0.868,5.079 -5.145,5.948 l -1.549,0.311 0,0.307 36.612,0 0,-12.264 -0.311,0 -2.912,5.264 c -2.909,5.329 -6.934,6.693 -14.431,6.693 l -5.079,0 0,-20.505 3.097,0.061 c 6.627,0.122 8.855,0.434 10.965,7.123 l 0.679,2.172 0.312,0 0,-19.019 -0.312,0 -0.679,2.106 c -2.172,6.75 -4.277,7 -10.965,7.122 l -3.097,0.062 0,-15.611 c 0,-3.714 1.359,-6.255 5.76,-6.255 l 1.859,0 z m 61.819,34.011 0,-35.247 -0.429,0 -31.533,37.164 0.188,-22.917 c 0.058,-10.41 3.343,-11.773 7.123,-12.764 l 0.992,-0.247 0,-0.311 -16.791,0 0,0.311 0.991,0.247 c 3.72,0.93 7.123,2.417 7.123,12.764 l 0,23.229 -0.741,0.802 c -3.285,3.597 -5.39,5.079 -8.799,5.702 l 0,0.307 15.053,0 c 1.549,-2.79 3.783,-5.513 8.733,-11.396 l 17.721,-20.939 -0.188,22.304 c -0.061,7.43 -2.785,8.979 -6.628,9.535 l -1.425,0.189 0,0.307 38.966,0 c 16.102,0 24.344,-10.158 24.344,-21.492 0,-11.338 -8.242,-21.87 -24.344,-21.87 l -21.679,0 0,0.311 1.486,0.247 c 4.398,0.745 5.201,3.285 5.201,6.136 l 0,27.628 c 0,6.628 -3.408,8.733 -7.68,8.733 -4.277,0 -7.684,-2.105 -7.684,-8.733 m 29.054,-34.011 c 11.523,0 17.593,8.177 17.593,21.37 0,13.199 -6.629,21.374 -18.15,21.374 l -5.947,0 0,-36.305 c 0,-3.587 0.806,-6.439 5.14,-6.439 l 1.364,0 z m 48.63,0 c 6.934,0 10.594,1.983 13.561,7.062 l 2.918,4.891 0.307,0 0,-12.264 -38.284,0 0,0.311 1.549,0.247 c 4.276,0.684 5.141,3.346 5.141,6.136 l 0,30.102 c 0,2.912 -0.865,5.079 -5.141,5.948 l -1.549,0.311 0,0.307 36.608,0 0,-12.264 -0.307,0 -2.912,5.264 c -2.912,5.329 -6.939,6.693 -14.43,6.693 l -5.08,0 0,-20.505 3.098,0.061 c 6.627,0.122 8.855,0.434 10.959,7.123 l 0.685,2.172 0.307,0 0,-19.019 -0.307,0 -0.685,2.106 c -2.164,6.75 -4.272,7 -10.959,7.122 l -3.098,0.062 0,-15.611 c 0,-3.714 1.36,-6.255 5.76,-6.255 l 1.859,0 z m 61.323,31.779 c -0.061,7.992 -2.791,10.22 -6.627,10.776 l -1.426,0.189 0,0.307 16.662,0 0,-0.307 -1.424,-0.189 c -3.838,-0.556 -6.629,-2.784 -6.629,-10.776 l 0,-33.015 -0.431,0 -31.53,37.164 0.186,-22.917 c 0.06,-10.41 3.346,-11.773 7.121,-12.764 l 0.992,-0.247 0,-0.311 -16.787,0 0,0.311 0.992,0.247 c 3.715,0.93 7.123,2.417 7.123,12.764 l 0,23.229 -0.746,0.802 c -3.281,3.597 -5.386,5.079 -8.795,5.702 l 0,0.307 15.055,0 c 1.547,-2.79 3.781,-5.513 8.738,-11.396 l 17.711,-20.939 -0.185,21.063 z m 26.576,10.965 -2.729,0 c -5.82,0 -8.236,-2.973 -10.465,-8.548 l -2.109,-5.268 -0.307,0 0,14.123 38.405,0 0,-14.123 -0.313,0 -2.103,5.268 c -2.229,5.575 -4.584,8.548 -10.467,8.548 l -2.729,0 0,-36.361 c 0,-2.79 0.87,-5.452 5.141,-6.136 l 1.549,-0.247 0,-0.311 -20.567,0 0,0.311 1.549,0.247 c 4.276,0.684 5.145,3.346 5.145,6.136 l 0,36.361 z" /></g></g></svg>